# xmcd
#
# Track frame offsets:
#	182
#	18520
#	31117
#	42237
#	53917
#	65060
#	76657
#	87012
#	97685
#	107507
#	116787
#	128395
#	138745
#	149705
#	160592
#	170060
#	183280
#	194280
#
# Disc length: 2763 seconds
#
# Revision: 0
# Processed by: cddbd v1.4PL0 Copyright (c) Steve Scherf et al.
# Submitted via: dBpowerAMP V4.0
#
DISCID=e90ac912
DTITLE=Brook Benton - The Magic Collection
DYEAR=1900
DGENRE=
TTITLE0=Rainy Night In Georgia
TTITLE1=The Boll Weeval Song
TTITLE2=It's Just A Matter Of Time
TTITLE3=Hotel Happiness
TTITLE4=So Many ways
TTITLE5=My True Confession
TTITLE6=The Same One
TTITLE7=Thank You Pretty Baby
TTITLE8=Lie To Me
TTITLE9=Shadrack
TTITLE10=Kiddio
TTITLE11=Fools Rush In
TTITLE12=Revenge
TTITLE13=Frankie and Johnny
TTITLE14=So Close
TTITLE15=I Got What I Wanted
TTITLE16=It's Just A House Without You
TTITLE17=A Lover's Question
EXTD=
EXTT0=
EXTT1=
EXTT2=
EXTT3=
EXTT4=
EXTT5=
EXTT6=
EXTT7=
EXTT8=
EXTT9=
EXTT10=
EXTT11=
EXTT12=
EXTT13=
EXTT14=
EXTT15=
EXTT16=
EXTT17=
PLAYORDER=
